<svg height="512" viewBox="0 0 512 512" width="512" xmlns="http://www.w3.org/2000/svg"><g id="filled_outline" data-name="filled outline"><path d="m144 112a7.977 7.977 0 0 1 -3.245-.691l-58.022-25.784a14.367 14.367 0 0 0 -15.9 2.951l-5.18 5.181a8 8 0 0 1 -11.31-11.314l5.181-5.18a30.459 30.459 0 0 1 33.707-6.263l66.078 29.236c4.038 1.794-2.2 3.071-4 7.109a8.005 8.005 0 0 1 -7.309 4.755z" fill="#027e2a"/><path d="m416 168h-360v-14a50 50 0 0 1 50-50h278l18.733 9.367a24 24 0 0 1 13.267 21.466z" fill="#02a437"/><path d="m384 104h-232l37.823-44.127a34 34 0 0 1 25.815-11.873h116.631a34 34 0 0 1 29.52 17.131z" fill="#6ee7f5"/><circle cx="344" cy="168" fill="#656666" r="32"/><path d="m280 48h16v56h-16z" fill="#65d3e0"/><path d="m280 104h16v64h-16z" fill="#027e2a"/><path d="m144 104h16v64h-16z" fill="#027e2a"/><path d="m40 200h392v32.022h-392z" fill="#fbb540"/><path d="m112 448h40l200-216h-40z" fill="#d18d28"/><path d="m224 136h-16a8 8 0 0 1 0-16h16a8 8 0 0 1 0 16z" fill="#027e2a"/><path d="m360 448-104.287-104.287a24.012 24.012 0 0 0 -27.426-27.426l-84.287-84.287h-40l104.287 104.287a24.012 24.012 0 0 0 27.426 27.426l84.287 84.287z" fill="#ea9d2d"/><circle cx="232.004" cy="340" fill="#d18d28" r="8.004"/><circle cx="128" cy="168" fill="#656666" r="32"/><path d="m40 448h296v32h-296z" fill="#fbb540"/><path d="m440 168-24 .022v71.989a24 24 0 0 1 -24.011 24 24 24 0 0 1 -23.989-24v-72.011h-24l-32 64v48l40 40v160h80l.4-160 39.6-40v-48z" fill="#cbcbcb"/><path d="m416 240.01v7.99a24 24 0 0 1 -48 0v-7.99a24 24 0 1 0 48 0z" fill="#cbcbcb"/><path d="m376 480v-152a8 8 0 0 1 8-8h16a8 8 0 0 1 0 16h-8v144z" fill="#eaeae8"/><path d="m336 448h16v32h-16z" fill="#ea9d2d"/><path d="m416 240.01v7.99a24 24 0 0 1 -48 0v-7.99a24 24 0 1 0 48 0z" fill="#eaeae8"/><path d="m208 136h16a8 8 0 0 0 0-16h-16a8 8 0 0 0 0 16z"/><circle cx="232.004" cy="340" r="8.004"/><path d="m479.155 228.422-32-64a8 8 0 0 0 -7.155-4.422h-.007l-15.993.015v-25.182a31.826 31.826 0 0 0 -17.689-28.622l-16.567-8.283-21.009-36.765a42.091 42.091 0 0 0 -36.466-21.163h-116.631a41.951 41.951 0 0 0 -31.889 14.667l-35.429 41.333h-2.62l-56.469-25.1a30.459 30.459 0 0 0 -33.707 6.259l-5.181 5.18a8 8 0 0 0 11.314 11.318l5.18-5.181a14.367 14.367 0 0 1 15.9-2.951l23.563 10.475h-.3a58.066 58.066 0 0 0 -58 58v14a8 8 0 0 0 8 8h32.805a39.835 39.835 0 0 0 7.217 16h-56.022a8 8 0 0 0 -8 8v32a8 8 0 0 0 8 8h60.691l99.316 99.316c0 .226-.007.453-.007.679 0 .387.016.77.03 1.153l-91.525 98.852h-68.505a8 8 0 0 0 -8 8v32a8 8 0 0 0 8 8h392a8 8 0 0 0 8-7.98l.394-156.722 37.292-37.67a8 8 0 0 0 2.314-5.628v-48a7.994 7.994 0 0 0 -.845-3.578zm-135.155 192.265-80.007-80.008c0-.226.007-.453.007-.679 0-.387-.016-.77-.029-1.153l45.943-49.619 34.086 34.086zm-112.883-112.887-67.794-67.79 130.348.011-61.615 66.544a7.979 7.979 0 0 0 -.939 1.235zm72.883-55.385v19.65l-45.853 49.521a32.258 32.258 0 0 0 -9.791-9.076zm-24-92.415h-112.8a39.837 39.837 0 0 0 -7.2-15.974v-32.026h120zm-112.8 16h137.619a40.2 40.2 0 0 0 7.215 16h-152.056a39.835 39.835 0 0 0 7.222-16zm159.538 8.646a23.992 23.992 0 1 1 39.886-24.646h-22.624a8 8 0 0 0 -7.155 4.422zm49.262 39.376v-16.022h32v16.022zm32-32.022h-32v-16h32zm0 48.022a16 16 0 0 1 -16 15.989h-.007a16.02 16.02 0 0 1 -15.993-15.989zm0-105.189v25.167h-24.8a40 40 0 0 0 -78.39 0h-8.81v-48h86.111l17.044 8.522a15.912 15.912 0 0 1 8.845 14.311zm-53.157-65.733 15.371 26.9h-74.214v-40h36.269a26.055 26.055 0 0 1 22.574 13.1zm-158.943-4.021a25.971 25.971 0 0 1 19.738-9.079h64.362v40h-110.606zm-131.9 88.921a42.047 42.047 0 0 1 42-42h37.958.038v19.35a39.979 39.979 0 0 0 -55.191 28.65h-24.805zm40 14a24 24 0 1 1 24 24 24.028 24.028 0 0 1 -24-24zm-56 40h267.056l-8.011 16.022-259.045-.022zm75.32 32.007h17.38l81.935 81.936a8.007 8.007 0 0 0 6.885 2.248 16.318 16.318 0 0 1 2.48-.191 16.014 16.014 0 0 1 15.808 18.486 8 8 0 0 0 2.249 6.884l90.63 90.63h-17.374l-81.943-81.943a8 8 0 0 0 -6.884-2.249 16.013 16.013 0 0 1 -18.294-18.293 8 8 0 0 0 -2.248-6.885zm109.563 132.193 67.8 67.8h-130.373l61.634-66.565a7.979 7.979 0 0 0 .939-1.235zm-27.029-13.784a32.257 32.257 0 0 0 9.79 9.077l-67.139 72.507h-18.195zm-157.854 97.584h296v16h-296zm416-179.29-37.283 37.662a8 8 0 0 0 -2.315 5.608l-.382 152.02h-32.02v-136h8a8 8 0 0 0 0-16h-16a8 8 0 0 0 -8 8v144h-16v-152a8 8 0 0 0 -2.343-5.657l-37.657-37.657v-42.8l28.944-57.886h11.056v64.011a32.04 32.04 0 0 0 31.986 32h.014a32 32 0 0 0 32-32v-64l11.058-.011 28.942 57.889z"/></g></svg>