<svg xmlns="http://www.w3.org/2000/svg" viewBox="0 0 1440 320"><path fill="#F2F4F8" fill-opacity="1" d="M0,192L24,170.7C48,149,96,107,144,96C192,85,240,107,288,128C336,149,384,171,432,181.3C480,192,528,192,576,176C624,160,672,128,720,144C768,160,816,224,864,250.7C912,277,960,267,1008,245.3C1056,224,1104,192,1152,202.7C1200,213,1248,267,1296,288C1344,309,1392,299,1416,293.3L1440,288L1440,320L1416,320C1392,320,1344,320,1296,320C1248,320,1200,320,1152,320C1104,320,1056,320,1008,320C960,320,912,320,864,320C816,320,768,320,720,320C672,320,624,320,576,320C528,320,480,320,432,320C384,320,336,320,288,320C240,320,192,320,144,320C96,320,48,320,24,320L0,320Z"></path></svg>